Coordinates
version=1
nRows=6
nColumns=63
inDegrees=yes

Units are S.I. units (second, meters, Newtons, ...)
If the header above contains a line with 'inDegrees', this indicates whether rotational values are in degrees (yes) or radians (no).

endheader
time	pelvis_tilt	pelvis_list	pelvis_rotation	pelvis_tx	pelvis_ty	pelvis_tz	hip_flexion_r	hip_adduction_r	hip_rotation_r	knee_angle_r	knee_angle_r_beta	ankle_angle_r	subtalar_angle_r	mtp_angle_r	hip_flexion_l	hip_adduction_l	hip_rotation_l	knee_angle_l	knee_angle_l_beta	ankle_angle_l	subtalar_angle_l	mtp_angle_l	L5_S1_Flex_Ext	L5_S1_Lat_Bending	L5_S1_axial_rotation	L4_L5_Flex_Ext	L4_L5_Lat_Bending	L4_L5_axial_rotation	L3_L4_Flex_Ext	L3_L4_Lat_Bending	L3_L4_axial_rotation	L2_L3_Flex_Ext	L2_L3_Lat_Bending	L2_L3_axial_rotation	L1_L2_Flex_Ext	L1_L2_Lat_Bending	L1_L2_axial_rotation	L1_T12_Flex_Ext	L1_T12_Lat_Bending	L1_T12_axial_rotation	Abs_r3	Abs_r2	Abs_r1	Abs_t1	Abs_t2	neck_flexion	neck_bending	neck_rotation	arm_flex_r	arm_add_r	arm_rot_r	elbow_flex_r	pro_sup_r	wrist_flex_r	wrist_dev_r	arm_flex_l	arm_add_l	arm_rot_l	elbow_flex_l	pro_sup_l	wrist_flex_l	wrist_dev_l
      2.45000000	      4.07561927	     -6.11680863	     90.01548380	      0.12557987	      0.98098212	      0.33835440	     -4.01032585	      0.82474785	    -13.78352292	      0.59408359	      0.01036871	     29.06793491	     13.95234234	      0.00000000	      1.39230625	     -0.05196193	     -6.34481179	     12.60648688	      0.22002470	     31.86546709	      3.64446636	      0.00000000	     -0.00649417	     -0.02368416	     -0.22155269	     -0.01206032	     -0.03149994	     -0.23539974	     -0.01066927	     -0.05758567	     -0.23539974	     -0.00742219	     -0.05758567	     -0.19385861	     -0.00603049	     -0.04829675	     -0.18001156	     -0.00371077	     -0.03668677	     -0.16616452	     -0.04638720	     -0.26791999	     -1.23220962	      0.00000000	      0.00000000	     -3.21011451	      0.00001618	     17.17682588	    -19.89869380	    -36.85310954	     39.32067282	     95.34851668	     89.48417432	    -13.49113282	    -11.95079369	    -29.65475303	    -33.43969912	     26.67416065	     93.37315432	     89.31716485	    -20.05956082	    -18.19009630
      2.46666667	      4.08804358	     -6.09630961	     90.07346417	      0.12486268	      0.98065553	      0.33652372	     -4.13040963	      0.80366194	    -13.68307023	      0.57451313	      0.01002715	     29.28974551	     14.00922870	      0.00000000	      1.26704976	     -0.00948835	     -6.40538590	     12.58714833	      0.21968718	     31.94581501	      3.59877355	      0.00000000	      0.00492127	     -0.02704226	     -0.24421802	      0.00913930	     -0.03596620	     -0.25948164	      0.00808516	     -0.06575054	     -0.25948164	      0.00562452	     -0.06575054	     -0.21369076	      0.00456989	     -0.05514457	     -0.19842714	      0.00281202	     -0.04188845	     -0.18316351	      0.03515217	     -0.30590740	     -1.35826734	      0.00000000	      0.00000000	     -3.20283268	      0.03724567	     17.17677675	    -19.99291969	    -36.79804246	     39.29933081	     95.24054407	     89.49228783	    -13.51406434	    -12.04099715	    -29.83995159	    -33.32859554	     26.89677711	     92.86013754	     89.31098838	    -19.97160605	    -18.18888464
      2.48333333	      4.08228012	     -6.05490099	     90.15498983	      0.12399523	      0.98030049	      0.33460375	     -4.26764161	      0.75661285	    -13.56740626	      0.56694597	      0.00989507	     29.60233210	     14.06966553	      0.00000000	      1.07639083	      0.06678897	     -6.38938039	     12.49108441	      0.21801055	     32.06436873	      3.61631841	      0.00000000	      0.01719188	     -0.02945359	     -0.27188076	      0.03192703	     -0.03917328	     -0.28887331	      0.02824453	     -0.07161346	     -0.28887331	      0.01964860	     -0.07161346	     -0.23789567	      0.01596438	     -0.06006176	     -0.22090312	      0.00982344	     -0.04562361	     -0.20391057	      0.12279985	     -0.33318492	     -1.51211922	      0.00000000	      0.00000000	     -3.31722009	      0.00367366	     17.18006727	    -20.09404364	    -36.77073174	     39.21751349	     95.18677160	     89.50677719	    -13.54764872	    -12.24415060	    -30.01013410	    -33.18018535	     27.08701868	     92.37383912	     89.32997078	    -19.81237309	    -18.29219874
      2.50000000	      4.07483444	     -5.92323476	     90.39888348	      0.12267537	      0.97997064	      0.33222228	     -4.53818864	      0.70926404	    -13.58970463	      0.56855256	      0.00992311	     30.05149854	     14.08278058	      0.00000000	      0.59857075	      0.19460166	     -6.07745759	     12.01934778	      0.20977719	     32.18508949	      3.91866801	      0.00000000	      0.02060964	     -0.02756697	     -0.31087856	      0.03827417	     -0.03666407	     -0.33030847	      0.03385958	     -0.06702633	     -0.33030847	      0.02355476	     -0.06702633	     -0.27201874	      0.01913812	     -0.05621457	     -0.25258883	      0.01177635	     -0.04270124	     -0.23315892	      0.14721262	     -0.31184310	     -1.72901329	      0.00000000	      0.00000000	     -3.71758553	     -0.37319954	     17.06891846	    -20.55664301	    -36.71776387	     38.87240237	     95.07311421	     89.47732219	    -13.61140532	    -13.03601157	    -30.22114666	    -32.94341051	     27.11634208	     91.83512719	     89.34453972	    -19.16614345	    -19.00519247
      2.51666667	      4.09770294	     -5.88547572	     90.47714959	      0.12194650	      0.97969435	      0.33047482	     -4.64936855	      0.70626980	    -13.59012481	      0.55915685	      0.00975913	     30.18121143	     14.08892805	      0.00000000	      0.46202975	      0.23312834	     -6.07101504	     12.00811504	      0.20958114	     32.29872145	      3.91704945	      0.00000000	      0.02738723	     -0.02912662	     -0.31494165	      0.05086083	     -0.03873841	     -0.33462551	      0.04499449	     -0.07081847	     -0.33462551	      0.03130087	     -0.07081847	     -0.27557395	      0.02543179	     -0.05939501	     -0.25589009	      0.01564907	     -0.04511714	     -0.23620624	      0.19562427	     -0.32948617	     -1.75161100	      0.00000000	      0.00000000	     -3.66536568	     -0.38662356	     17.00260723	    -20.72704698	    -36.66442780	     38.93600183	     94.89831741	     89.42568641	    -13.58742206	    -13.04964456	    -30.37919514	    -32.85055834	     27.26296631	     91.59581973	     89.32411017	    -19.07323418	    -18.99004451
      2.53333333	      4.14642198	     -5.61514561	     90.94891825	      0.12042615	      0.97956265	      0.32867839	     -5.07164755	      0.75231742	    -13.91776689	      0.52739021	      0.00920470	     30.55682338	     14.12328790	      0.00000000	     -0.09529756	      0.27962013	     -5.59926366	     11.57044113	      0.20194229	     32.52504066	      4.37246837	      0.00000000	     -0.00023911	     -0.03126778	     -0.33289960	     -0.00044404	     -0.04158614	     -0.35370582	     -0.00039283	     -0.07602447	     -0.35370582	     -0.00027327	     -0.07602447	     -0.29128715	     -0.00022203	     -0.06376125	     -0.27048092	     -0.00013663	     -0.04843379	     -0.24967470	     -0.00170791	     -0.35370735	     -1.85148768	      0.00000000	      0.00000000	     -3.75866086	     -0.68365034	     15.87807952	    -21.45721097	    -36.44557324	     38.36951864	     94.71491438	     89.40624492	    -13.26106591	    -13.40158222	    -30.29235846	    -32.80918559	     27.36032900	     91.43614114	     89.37463464	    -18.21183423	    -19.04340455
